<svg width="26" height="26" viewBox="0 0 26 26" fill="none" xmlns="http://www.w3.org/2000/svg">
<path d="M15.4253 0.802539L10.2403 0.790039H10.2378C4.77029 0.790039 0.487793 5.07379 0.487793 10.5425C0.487793 15.665 4.47029 19.55 9.81904 19.755V24.54C9.81904 24.675 9.87404 24.8975 9.96904 25.0438C10.1465 25.325 10.449 25.4775 10.759 25.4775C10.9315 25.4775 11.1053 25.43 11.2615 25.33C11.5915 25.12 19.3528 20.155 21.3715 18.4475C23.749 16.435 25.1715 13.485 25.1753 10.5575V10.5363C25.1678 5.07754 20.8878 0.802539 15.4253 0.801289V0.802539ZM20.159 17.0175C18.7415 18.2175 14.0815 21.2738 11.694 22.8213V18.8375C11.694 18.32 11.2753 17.9 10.7565 17.9H10.2615C5.68654 17.9 2.36404 14.805 2.36404 10.5425C2.36404 6.12504 5.82404 2.66504 10.239 2.66504L15.4228 2.67754H15.4253C19.8403 2.67754 23.3003 6.13504 23.3028 10.5475C23.299 12.935 22.1253 15.3525 20.1603 17.0175H20.159Z" fill="#6C757D"/>
</svg>
