<svg width="95" height="24" viewBox="0 0 95 24" fill="none" xmlns="http://www.w3.org/2000/svg">
<path d="M5.6 15.456V7.584H6.608V15.216C6.608 15.408 6.56 15.456 6.44 15.456H5.6ZM8.648 5.088H5.6V0.671999H3.272V5.088H0.272V18.12H2.36V7.584H3.272V23.088H5.6V15.648C5.888 16.32 6.128 17.232 6.152 17.832C6.992 17.832 7.544 17.76 8.048 17.328C8.552 16.92 8.648 16.176 8.648 15.288V5.088ZM19.616 13.896C18.992 14.544 18.008 15.336 17.096 16.008C16.664 15.336 16.256 14.64 15.896 13.896H21.848V11.472H13.088V10.248H20.288V8.256H13.088V7.032H20.216V5.04H13.088V3.888H21.224V1.656H10.352V11.472H8.984V13.896H9.896V18.576C9.896 19.608 9.224 20.352 8.72 20.664C9.2 21.264 9.848 22.536 10.04 23.232C10.544 22.872 11.384 22.488 15.92 21.024C15.824 20.448 15.752 19.416 15.752 18.696L12.584 19.608V13.896H13.4C14.792 17.784 17.12 21.072 20.384 22.776C20.816 22.032 21.656 20.976 22.28 20.424C20.84 19.8 19.544 18.864 18.464 17.712C19.472 17.112 20.624 16.416 21.704 15.672L19.616 13.896ZM29.816 13.152C29.912 12 29.96 10.872 29.96 9.888V9.648H40.544V13.152H29.816ZM29.96 7.008V5.016C34.424 4.584 39.248 3.864 42.92 2.856L40.664 0.696C37.4 1.656 31.928 2.472 27.08 2.904V9.864C27.08 13.368 26.792 18.096 23.672 21.264C24.272 21.624 25.448 22.656 25.88 23.208C27.872 21.24 28.904 18.504 29.432 15.792H40.544V16.992H43.472V7.008H29.96ZM56.336 7.968H48.992V10.128H56.336V8.928C56.864 9.432 57.608 10.272 57.896 10.752C60.92 9.144 61.568 6.432 61.568 4.104V4.08H64.448V6.648C64.448 9.024 64.88 10.032 67.136 10.032H68.384C68.864 10.032 69.392 10.008 69.728 9.84C69.632 9.192 69.584 8.208 69.536 7.488C69.224 7.584 68.672 7.656 68.36 7.656H67.4C67.112 7.656 67.064 7.368 67.064 6.672V1.44H58.976V4.008C58.976 5.568 58.688 7.248 56.336 8.544V7.968ZM57.344 4.632H52.784L54.368 3.768C53.984 2.88 53.264 1.56 52.616 0.576L50.384 1.608C50.912 2.52 51.56 3.72 51.944 4.632H47.96V6.888H57.344V4.632ZM56.384 11.184H48.992V13.344H56.384V11.184ZM65.6 13.704C64.952 15.024 64.088 16.152 63.032 17.112C61.856 16.128 60.896 15 60.2 13.704H65.6ZM53.888 19.464H51.44V16.776H53.888V19.464ZM67.424 10.92L66.968 11.04H56.96V13.704H59.168L57.608 14.256C58.472 15.96 59.528 17.472 60.776 18.72C59.456 19.488 57.968 20.04 56.36 20.424V14.496H49.016V22.776H51.44V21.768H56.36V20.904C56.792 21.576 57.224 22.44 57.464 23.04C59.528 22.488 61.4 21.672 63.056 20.616C64.64 21.672 66.488 22.464 68.6 22.968C68.984 22.2 69.728 20.976 70.352 20.4C68.504 20.04 66.848 19.44 65.384 18.672C67.112 16.92 68.432 14.64 69.224 11.688L67.424 10.92ZM75.56 5.904H90.32V9.216H93.272V3.216H84.944C84.68 2.352 84.176 1.272 83.696 0.431999L80.816 1.224C81.128 1.848 81.416 2.544 81.656 3.216H72.752V9.216H75.56V5.904ZM84.488 16.272H91.064V13.584H84.488V10.752H89.6V8.016H76.4V10.752H81.512V18.888C80.12 18.168 79.016 17.016 78.296 15.048C78.488 14.136 78.68 13.152 78.8 12.144L75.896 11.88C75.464 15.96 74.264 19.296 71.672 21.24C72.32 21.624 73.544 22.632 74 23.136C75.368 21.96 76.424 20.4 77.216 18.528C79.4 22.008 82.688 22.752 87.176 22.752H93.152C93.296 21.888 93.752 20.52 94.184 19.848C92.552 19.896 88.592 19.896 87.32 19.896C86.312 19.896 85.376 19.848 84.488 19.728V16.272Z" fill="#171725"/>
</svg>
