<svg width="32" height="32" viewBox="0 0 32 32" fill="none" xmlns="http://www.w3.org/2000/svg">
<path fill-rule="evenodd" clip-rule="evenodd" d="M20.5596 14.7769C20.5596 14.7769 14.5861 24.4626 9.68866 24.4626C1.12241 24.4626 9.10555 6.01071 15.3532 6.01071C19.7127 6.01071 20.5596 14.7769 20.5596 14.7769Z" fill="white" fill-opacity="0.3"/>
<path fill-rule="evenodd" clip-rule="evenodd" d="M27.6578 26.9579C25.9561 28.7687 23.8558 30.1582 21.5235 31.0162C19.1912 31.8742 16.6911 32.1771 14.2213 31.901C11.7516 31.6248 9.38013 30.7771 7.29505 29.4252C5.20996 28.0732 3.46858 26.2541 2.20898 24.1122C3.62512 26.0382 6.027 27.3223 9.4424 27.3223C17.8559 27.3223 22.6319 20.7841 22.6319 20.7841C22.6319 20.7841 23.045 25.9515 27.6474 26.9579H27.6578Z" fill="white" fill-opacity="0.3"/>
<path fill-rule="evenodd" clip-rule="evenodd" d="M30.1778 8.59619C31.4371 11.0022 32.0625 13.6894 31.9951 16.4041C31.9277 19.1188 31.1697 21.7716 29.7925 24.1122C28.7033 23.5012 27.898 22.4866 27.5503 21.2873L25.7246 15.818L30.1778 8.59619Z" fill="white" fill-opacity="0.3"/>
<path fill-rule="evenodd" clip-rule="evenodd" d="M16.0025 0.013895C20.0148 0.0112268 23.881 1.51905 26.8318 4.23732L23.8017 9.12705C22.7049 6.27441 20.4765 3.41832 16.1414 3.41832C7.26273 3.41832 0.681845 13.1111 0.681845 19.1877C0.679889 19.9735 0.780226 20.7563 0.98034 21.5163C0.0924655 19.098 -0.198358 16.5012 0.132575 13.9465C0.463508 11.3918 1.40642 8.95474 2.88117 6.84245C4.35593 4.73015 6.31892 3.00507 8.60334 1.81381C10.8878 0.622543 13.4261 0.000310806 16.0025 0V0.013895Z" fill="white" fill-opacity="0.3"/>
</svg>
