<svg width="108" height="18" viewBox="0 0 108 18" fill="none" xmlns="http://www.w3.org/2000/svg">
<path d="M4.698 8.116C5.202 9.232 5.652 10.672 5.796 11.59L7.29 10.96C7.146 10.078 6.624 8.656 6.102 7.576L4.698 8.116ZM3.006 12.832C3.186 14.02 3.366 15.568 3.384 16.612L4.932 16.216C4.86 15.19 4.68 13.678 4.446 12.49L3.006 12.832ZM1.062 12.598C0.954 14.056 0.756 15.676 0.36 16.72C0.756 16.828 1.53 17.08 1.89 17.278C2.25 16.162 2.538 14.47 2.664 12.868L1.062 12.598ZM1.008 7.864C1.008 7.522 2.106 6.928 2.106 6.928V6.892C3.24 5.488 4.41 3.418 5.238 1.492L3.474 0.753999C2.88 2.662 1.764 4.66 1.404 5.182C1.044 5.704 0.738 6.046 0.414 6.136C0.63 6.622 0.918 7.504 1.008 7.864ZM1.026 7.828C1.368 7.666 1.926 7.522 4.68 7.27C4.68 6.874 4.77 6.19 4.878 5.704L1.782 5.902L0.99 6.442L1.026 7.828ZM1.152 12.04C1.152 11.698 2.25 11.122 2.25 11.122V11.086C3.96 9.25 5.742 6.712 7.02 4.264L5.418 3.238C4.32 5.776 2.52 8.404 1.908 9.07C1.368 9.754 0.99 10.186 0.558 10.294C0.756 10.78 1.062 11.68 1.152 12.04ZM1.152 12.04C1.566 11.824 2.214 11.644 6.426 10.996C6.408 10.618 6.444 9.916 6.498 9.448L1.872 10.078L1.062 10.636L1.152 12.04ZM4.878 12.418C5.202 13.372 5.562 14.614 5.67 15.424L7.128 14.902C6.966 14.092 6.588 12.904 6.264 11.95L4.878 12.418ZM7.506 1.924V5.848C7.506 8.8 7.434 13.372 6.228 16.522C6.696 16.702 7.578 17.188 7.938 17.512C9.216 14.146 9.432 8.998 9.432 5.848V1.924H7.506ZM11.394 10.042V17.404H12.564V10.042H11.394ZM13.302 10.042V17.314H14.472V10.042H13.302ZM8.73 3.994V5.632H14.562V6.838H8.73V8.476H16.452V3.994H8.73ZM9.072 9.304V17.638H10.638V11.05H15.948V9.304H9.072ZM15.228 9.304V15.928C15.228 16.054 15.192 16.09 15.12 16.09C15.012 16.09 14.778 16.09 14.544 16.072C14.724 16.486 14.904 17.098 14.94 17.512C15.552 17.512 16.002 17.512 16.398 17.26C16.776 16.99 16.866 16.612 16.866 15.946V9.304H15.228ZM9.954 12.4V14.074H15.786V12.4H9.954ZM14.958 0.717999C13.212 1.276 10.188 1.708 7.506 1.924C7.722 2.32 7.974 3.04 8.046 3.472C10.854 3.292 14.148 2.878 16.506 2.158L14.958 0.717999ZM32.472 6.694V17.602H34.47V6.694H32.472ZM29.34 2.77H32.4V3.886H29.34V2.77ZM27.324 1.24V5.398H34.542V1.24H27.324ZM26.352 6.136V7.828H35.478V6.136H26.352ZM28.332 8.836V10.348H33.462V8.836H28.332ZM28.332 11.374V12.886H33.462V11.374H28.332ZM27.396 6.604V14.794L29.376 14.596V6.604H27.396ZM18.72 2.446V4.3H26.226V2.446H18.72ZM18.522 12.886V14.758H26.442V12.886H18.522ZM21.528 0.735999V5.974H23.454V0.735999H21.528ZM21.762 6.01V11.014H21.528V17.62H23.454V11.014H23.22V6.01H21.762ZM20.664 9.232H24.372V10.312H20.664V9.232ZM20.664 6.766H24.372V7.81H20.664V6.766ZM19.116 5.272V11.806H25.974V5.272H19.116ZM26.208 13.948V15.856H35.424V13.948H26.208ZM42.102 1.636V17.602H44.064V3.508H50.868V17.458H52.92V1.636H42.102ZM44.532 5.722V7.288H50.454V5.722H44.532ZM43.11 14.668V16.558H51.858V14.668H43.11ZM46.602 3.886V9.664H48.276V3.886H46.602ZM46.548 10.348H48.384V12.22H46.548V10.348ZM45 8.854V13.714H50.022V8.854H45ZM39.87 0.772C39.06 3.346 37.674 5.938 36.162 7.594C36.504 8.152 37.044 9.412 37.206 9.934C39.078 7.81 40.806 4.48 41.85 1.366L39.87 0.772ZM38.394 5.704V17.638H40.446V3.688L40.428 3.67L38.394 5.704ZM61.578 0.735999C61.488 3.814 61.83 11.896 54.504 15.838C55.206 16.324 55.908 17.008 56.304 17.584C63.828 13.156 63.936 4.462 64.044 0.735999H61.578ZM63.846 2.932L61.758 3.166C62.028 4.966 62.622 13.966 70.002 17.476C70.326 16.864 70.938 16.126 71.586 15.622C64.566 12.49 63.99 4.39 63.846 2.932ZM77.166 10.51H84.996V11.284H77.166V10.51ZM77.166 12.508H84.996V13.3H77.166V12.508ZM77.166 8.53H84.996V9.286H77.166V8.53ZM75.078 7.234V14.578H87.174V7.234H75.078ZM82.422 15.46C84.204 16.126 86.058 17.008 87.102 17.602L89.028 16.45C87.804 15.838 85.698 14.974 83.844 14.326L82.422 15.46ZM78.012 14.398C76.788 15.1 74.646 15.73 72.738 16.072C73.224 16.45 73.962 17.242 74.34 17.656C76.176 17.152 78.516 16.252 79.992 15.298L78.012 14.398ZM80.1 1.816V3.382H87.39V1.816H80.1ZM80.244 0.61C79.848 1.834 79.092 3.04 78.138 3.832C78.588 4.084 79.38 4.606 79.74 4.912C80.712 4.012 81.63 2.536 82.134 1.042L80.244 0.61ZM82.08 3.022V3.652C82.08 4.372 81.54 5.254 77.112 5.596C77.49 5.992 78.03 6.73 78.228 7.216C83.322 6.64 84.042 5.056 84.042 3.742V3.022H82.08ZM83.862 3.742L82.35 4.048C83.43 5.866 85.392 6.856 88.2 7.198C88.434 6.658 88.956 5.884 89.37 5.47C86.778 5.344 84.798 4.822 83.862 3.742ZM73.116 1.6V3.184H77.742V1.6H73.116ZM72.72 4.39V6.028H78.174V4.39H72.72ZM86.634 1.816V2.068C86.346 2.842 85.842 3.796 85.428 4.408L87.084 5.038C87.66 4.318 88.29 3.184 88.74 2.176L87.264 1.726L86.958 1.816H86.634ZM93.402 0.717999V17.62H95.4V0.717999H93.402ZM90.684 6.712V8.728H98.064V6.712H90.684ZM90.648 2.212C91.08 3.526 91.44 5.29 91.476 6.406L93.096 6.01C93.024 4.858 92.646 3.148 92.16 1.834L90.648 2.212ZM96.588 1.744C96.39 3.004 95.958 4.822 95.58 5.956L96.948 6.334C97.398 5.272 97.938 3.562 98.406 2.122L96.588 1.744ZM103.392 0.7V17.602H105.426V0.7H103.392ZM98.01 11.968L98.352 13.984L107.586 12.31L107.262 10.312L98.01 11.968ZM99.036 3.166C100.044 3.814 101.304 4.804 101.844 5.506L102.978 3.868C102.384 3.202 101.106 2.302 100.098 1.69L99.036 3.166ZM98.226 7.702C99.27 8.314 100.584 9.286 101.196 9.952L102.276 8.242C101.628 7.576 100.278 6.712 99.234 6.154L98.226 7.702ZM92.142 9.412C91.872 10.78 91.152 12.436 90.396 13.354C90.738 14.074 91.188 15.172 91.368 15.928C92.52 14.632 93.276 12.04 93.654 9.934L92.142 9.412ZM96.066 9.466L94.896 10.312C95.382 11.266 96.246 13.282 96.588 14.398L98.082 12.76C97.794 12.22 96.444 9.97 96.066 9.466Z" fill="#1C1C1C"/>
</svg>
