<svg width="130" height="52" viewBox="0 0 130 52" fill="none" xmlns="http://www.w3.org/2000/svg">
<path d="M28.17 21.24V22.995H40.935V21.24H28.17ZM34.875 26.295V28.065H40.17V26.295H34.875ZM27.66 32.025V33.78H41.37V32.025H27.66ZM33.99 21.945V32.88H35.91V21.945H33.99ZM29.505 25.32V32.97H31.38V25.32H29.505ZM42.825 22.35V24.075H56.205V22.35H42.825ZM47.715 27.21V28.875H55.575V27.21H47.715ZM47.13 32.31V33.975H56.145V32.31H47.13ZM50.775 24.72V33.195H52.59V24.72H50.775ZM47.55 20.25C46.77 23.28 45.06 26.64 42.345 28.41C42.615 28.845 43.035 29.64 43.215 30.15C46.425 27.96 48.315 24.315 49.425 20.7L47.55 20.25ZM44.55 26.535V34.32H46.365V26.535H44.55ZM63.6 21.735V23.205H68.22V24.63H63.6V26.1H69.975V21.735H63.6ZM65.49 20.235C65.385 20.865 65.115 21.705 64.89 22.32L66.585 22.635C66.885 22.11 67.275 21.33 67.635 20.505L65.49 20.235ZM62.73 21.735V31.545H64.47V21.735H62.73ZM63.765 27.015V28.485H68.805V30.09H63.765V31.56H70.545V27.015H63.765ZM58.005 21.105C58.695 21.855 59.565 22.905 59.985 23.535L61.35 22.545C60.9 21.945 60.06 21 59.34 20.28L58.005 21.105ZM57.63 23.76V25.2H60.81V23.76H57.63ZM60.675 30.285L59.475 30.765C60.585 33.645 62.445 34.11 65.925 34.11C67.68 34.11 69.6 34.065 71.16 33.975C71.25 33.48 71.49 32.67 71.73 32.31C70.035 32.46 67.56 32.565 65.955 32.565C63.24 32.55 61.485 32.31 60.675 30.285ZM60.33 27.405V27.675C59.97 30.33 58.905 32.175 57.285 33.165C57.645 33.405 58.215 34.02 58.455 34.365C60.18 33.21 61.41 31.005 61.905 27.69L61.05 27.375L60.765 27.405H60.33ZM57.915 29.04C58.05 28.905 58.485 28.8 58.845 28.8H60.81L60.825 27.405H58.56L57.915 27.75V29.04ZM57.915 29.04C57.915 28.635 59.13 28.05 59.13 28.05C60.015 27.075 61.35 25.23 62.085 24.195L60.99 23.685L60.525 23.88V23.925C59.985 24.75 58.59 26.655 58.14 27.09C57.855 27.39 57.585 27.495 57.345 27.57C57.495 27.9 57.825 28.665 57.915 29.04ZM79.575 21.255V22.41H86.385V21.255H79.575ZM81.765 23.01V24H85.92V23.01H81.765ZM80.775 24.81V25.8H86.265V24.81H80.775ZM82.83 23.73V25.35H84.36V23.73H82.83ZM81.885 20.19C81.525 21.99 80.685 23.46 79.38 24.345C79.65 24.6 80.115 25.14 80.28 25.41C81.765 24.315 82.74 22.56 83.22 20.4L81.885 20.19ZM84.48 26.28V31.035C84.48 31.17 84.435 31.215 84.285 31.215C84.135 31.215 83.64 31.215 83.19 31.2C83.34 31.515 83.505 31.965 83.565 32.295C84.36 32.295 84.915 32.295 85.305 32.1C85.71 31.92 85.815 31.62 85.815 31.035V26.28H84.48ZM81.225 26.28V27.3H85.17V26.28H81.225ZM80.625 26.28V28.26C80.625 29.25 80.565 30.495 79.875 31.44C80.16 31.575 80.76 31.98 81 32.19C81.795 31.125 81.93 29.505 81.93 28.29V26.28H80.625ZM81.645 29.655L82.095 30.93C83.01 30.66 84.03 30.345 85.11 29.985L85.035 29.025C83.745 29.265 82.53 29.52 81.645 29.655ZM81.93 28.215C82.53 28.515 83.28 28.995 83.685 29.31L84.33 28.335C83.94 28.035 83.205 27.675 82.575 27.375L81.93 28.215ZM72.975 20.85V34.305H74.385V22.455H76.245V20.85H72.975ZM75.735 20.85V21.285C75.54 22.26 75.135 24.18 74.745 25.53C75.525 26.655 75.675 27.66 75.675 28.395C75.69 28.86 75.6 29.22 75.45 29.37C75.345 29.445 75.21 29.49 75.075 29.505C74.91 29.505 74.715 29.505 74.49 29.475C74.7 29.865 74.805 30.435 74.82 30.825C75.135 30.825 75.435 30.81 75.69 30.78C75.99 30.75 76.23 30.645 76.44 30.48C76.875 30.135 77.04 29.49 77.04 28.575C77.04 27.675 76.875 26.61 76.05 25.38C76.44 24.18 76.89 22.62 77.22 21.36L76.215 20.805L75.99 20.85H75.735ZM77.145 20.925C77.505 21.675 77.955 22.68 78.135 23.34L79.53 22.86C79.32 22.23 78.885 21.27 78.495 20.535L77.145 20.925ZM76.89 23.7V25.215H79.035V23.7H76.89ZM79.095 30.39L78.015 30.825C78.96 33.615 80.58 34.125 83.16 34.125C84.18 34.125 85.305 34.11 86.205 34.05C86.265 33.6 86.46 32.85 86.67 32.505C85.665 32.61 84.195 32.67 83.235 32.67C81.27 32.67 79.8 32.385 79.095 30.39ZM78.6 27.24V27.495C78.285 30.27 77.385 32.235 75.93 33.27C76.23 33.51 76.74 34.08 76.95 34.41C78.54 33.195 79.62 30.885 80.025 27.465L79.44 27.195L79.185 27.24H78.6ZM77.37 28.95C77.505 28.815 77.925 28.71 78.21 28.71H79.29V27.24H78.015L77.37 27.57V28.95ZM77.37 28.95C77.37 28.575 78.405 28.035 78.405 28.035C78.9 27.045 79.62 24.885 79.995 23.85L79.005 23.58L78.615 23.745V23.79C78.36 24.615 77.655 26.76 77.415 27.15C77.25 27.48 77.07 27.585 76.845 27.645C76.995 27.945 77.28 28.605 77.37 28.95Z" fill="#657786"/>
</svg>
