<svg width="96" height="40" viewBox="0 0 96 40" fill="none" xmlns="http://www.w3.org/2000/svg">
<rect width="96" height="40" rx="20" fill="#FF6600"/>
<path d="M17.424 14.744V15.912H30.672V14.744H17.424ZM24.352 20.184V21.368H30.032V20.184H24.352ZM16.816 26.408V27.576H31.2V26.408H16.816ZM23.776 15.176V26.984H25.024V15.176H23.776ZM19.008 18.856V27.032H20.24V18.856H19.008ZM32.992 16.04V17.208H47.008V16.04H32.992ZM37.952 21.112V22.232H46.384V21.112H37.952ZM37.328 26.776V27.912H47.008V26.776H37.328ZM41.568 18.024V27.384H42.768V18.024H41.568ZM38.256 13.56C37.36 16.856 35.488 20.408 32.608 22.44C32.8 22.712 33.104 23.224 33.232 23.544C36.416 21.256 38.368 17.528 39.488 13.864L38.256 13.56ZM35.088 20.152V28.232H36.288V20.152H35.088ZM50.416 15.304H53.504V18.12H50.416V15.304ZM49.36 14.264V19.144H54.608V14.264H49.36ZM51.648 18.68V25.992H52.72V18.68H51.648ZM49.376 20.68V26.472H50.384V20.68H49.376ZM48.544 26.408L48.832 27.56C50.48 27.112 52.736 26.504 54.88 25.928L54.752 24.872C52.464 25.464 50.096 26.072 48.544 26.408ZM52.016 21.384V22.456H54.688V21.384H52.016ZM56.032 14.28V15.336H61.248V20.264H56.032V21.32H62.352V14.28H56.032ZM56.048 17.272V18.28H61.744V17.272H56.048ZM58.912 20.68L57.968 20.872C58.704 24.264 60.16 26.904 62.688 28.168C62.864 27.832 63.216 27.368 63.488 27.128C61.056 26.088 59.584 23.688 58.912 20.68ZM62.48 21.832C61.728 22.536 60.384 23.48 59.456 24.024L60.096 24.792C61.04 24.264 62.304 23.432 63.248 22.664L62.48 21.832ZM55.328 28.296C55.632 28.088 56.128 27.912 59.44 27C59.392 26.744 59.376 26.248 59.376 25.912L55.808 26.776L55.232 27.224L55.328 28.296ZM55.328 28.296C55.328 27.864 56.528 27.128 56.528 27.128V14.28H55.376V26.168C55.376 26.824 55.04 27.16 54.784 27.304C54.96 27.544 55.232 28.024 55.328 28.296ZM72.016 14.68V15.544H79.248V14.68H72.016ZM74.336 16.472V17.24H78.672V16.472H74.336ZM73.136 18.488V19.256H79.136V18.488H73.136ZM75.696 17.048V18.888H76.752V17.048H75.696ZM74.64 13.528C74.192 15.4 73.28 16.984 71.968 17.976C72.176 18.152 72.512 18.536 72.64 18.712C74.048 17.576 75.056 15.8 75.584 13.688L74.64 13.528ZM77.488 20.008V25.368C77.488 25.528 77.44 25.576 77.28 25.576C77.104 25.576 76.56 25.576 75.968 25.56C76.08 25.8 76.208 26.12 76.256 26.36C77.12 26.36 77.664 26.36 78 26.216C78.336 26.072 78.432 25.832 78.432 25.368V20.008H77.488ZM73.696 20.008V20.776H77.936V20.008H73.696ZM73.264 20.008V22.28C73.264 23.368 73.168 24.744 72.384 25.784C72.592 25.88 73.008 26.152 73.168 26.312C74.032 25.192 74.192 23.544 74.192 22.312V20.008H73.264ZM74.16 23.944L74.544 24.856C75.552 24.536 76.704 24.136 77.92 23.704L77.824 22.984C76.448 23.352 75.12 23.72 74.16 23.944ZM74.528 21.752C75.264 22.088 76.176 22.648 76.656 23.016L77.12 22.28C76.656 21.928 75.76 21.48 74.992 21.128L74.528 21.752ZM65.232 14.216V28.248H66.224V15.304H68.768V14.216H65.232ZM68.416 14.216V14.504C68.112 15.592 67.584 17.416 67.04 18.888C68.112 20.2 68.352 21.304 68.352 22.2C68.368 22.696 68.272 23.16 68.064 23.352C67.92 23.432 67.76 23.48 67.584 23.496C67.36 23.512 67.072 23.512 66.736 23.464C66.896 23.752 66.976 24.152 66.992 24.424C67.328 24.44 67.68 24.424 67.984 24.392C68.288 24.376 68.528 24.28 68.736 24.12C69.152 23.8 69.312 23.128 69.312 22.296C69.312 21.288 69.072 20.136 68 18.776C68.496 17.464 69.04 15.88 69.456 14.584L68.768 14.168L68.592 14.216H68.416ZM69.568 14.104C70 14.888 70.56 15.96 70.8 16.648L71.744 16.28C71.488 15.624 70.96 14.6 70.48 13.816L69.568 14.104ZM69.296 17.256V18.296H71.52V17.256H69.296ZM71.28 24.536L70.512 24.872C71.52 27.544 73.184 28.088 76.016 28.088C77.056 28.088 78.256 28.072 79.168 28.008C79.2 27.688 79.344 27.176 79.504 26.92C78.496 27.032 77.072 27.08 76.048 27.08C73.696 27.08 72.096 26.68 71.28 24.536ZM71.184 21.16V21.352C70.8 24.312 69.776 26.408 68.256 27.512C68.48 27.688 68.816 28.072 68.976 28.312C70.576 27.064 71.744 24.76 72.192 21.32L71.744 21.128L71.552 21.16H71.184ZM69.696 22.408C69.824 22.28 70.224 22.168 70.544 22.168H71.648V21.16H70.272L69.696 21.432V22.408ZM69.696 22.408C69.696 22.104 70.512 21.672 70.512 21.672C71.056 20.68 71.856 18.408 72.272 17.368L71.536 17.144L71.232 17.288V17.336C70.96 18.152 70.144 20.52 69.888 20.936C69.728 21.256 69.504 21.336 69.28 21.4C69.408 21.64 69.632 22.136 69.696 22.408Z" fill="white"/>
</svg>
