<svg width="130" height="52" viewBox="0 0 130 52" fill="none" xmlns="http://www.w3.org/2000/svg">
<path d="M41.6 21.735V23.205H46.22V24.63H41.6V26.1H47.975V21.735H41.6ZM43.49 20.235C43.385 20.865 43.115 21.705 42.89 22.32L44.585 22.635C44.885 22.11 45.275 21.33 45.635 20.505L43.49 20.235ZM40.73 21.735V31.545H42.47V21.735H40.73ZM41.765 27.015V28.485H46.805V30.09H41.765V31.56H48.545V27.015H41.765ZM36.005 21.105C36.695 21.855 37.565 22.905 37.985 23.535L39.35 22.545C38.9 21.945 38.06 21 37.34 20.28L36.005 21.105ZM35.63 23.76V25.2H38.81V23.76H35.63ZM38.675 30.285L37.475 30.765C38.585 33.645 40.445 34.11 43.925 34.11C45.68 34.11 47.6 34.065 49.16 33.975C49.25 33.48 49.49 32.67 49.73 32.31C48.035 32.46 45.56 32.565 43.955 32.565C41.24 32.55 39.485 32.31 38.675 30.285ZM38.33 27.405V27.675C37.97 30.33 36.905 32.175 35.285 33.165C35.645 33.405 36.215 34.02 36.455 34.365C38.18 33.21 39.41 31.005 39.905 27.69L39.05 27.375L38.765 27.405H38.33ZM35.915 29.04C36.05 28.905 36.485 28.8 36.845 28.8H38.81L38.825 27.405H36.56L35.915 27.75V29.04ZM35.915 29.04C35.915 28.635 37.13 28.05 37.13 28.05C38.015 27.075 39.35 25.23 40.085 24.195L38.99 23.685L38.525 23.88V23.925C37.985 24.75 36.59 26.655 36.14 27.09C35.855 27.39 35.585 27.495 35.345 27.57C35.495 27.9 35.825 28.665 35.915 29.04ZM57.575 21.255V22.41H64.385V21.255H57.575ZM59.765 23.01V24H63.92V23.01H59.765ZM58.775 24.81V25.8H64.265V24.81H58.775ZM60.83 23.73V25.35H62.36V23.73H60.83ZM59.885 20.19C59.525 21.99 58.685 23.46 57.38 24.345C57.65 24.6 58.115 25.14 58.28 25.41C59.765 24.315 60.74 22.56 61.22 20.4L59.885 20.19ZM62.48 26.28V31.035C62.48 31.17 62.435 31.215 62.285 31.215C62.135 31.215 61.64 31.215 61.19 31.2C61.34 31.515 61.505 31.965 61.565 32.295C62.36 32.295 62.915 32.295 63.305 32.1C63.71 31.92 63.815 31.62 63.815 31.035V26.28H62.48ZM59.225 26.28V27.3H63.17V26.28H59.225ZM58.625 26.28V28.26C58.625 29.25 58.565 30.495 57.875 31.44C58.16 31.575 58.76 31.98 59 32.19C59.795 31.125 59.93 29.505 59.93 28.29V26.28H58.625ZM59.645 29.655L60.095 30.93C61.01 30.66 62.03 30.345 63.11 29.985L63.035 29.025C61.745 29.265 60.53 29.52 59.645 29.655ZM59.93 28.215C60.53 28.515 61.28 28.995 61.685 29.31L62.33 28.335C61.94 28.035 61.205 27.675 60.575 27.375L59.93 28.215ZM50.975 20.85V34.305H52.385V22.455H54.245V20.85H50.975ZM53.735 20.85V21.285C53.54 22.26 53.135 24.18 52.745 25.53C53.525 26.655 53.675 27.66 53.675 28.395C53.69 28.86 53.6 29.22 53.45 29.37C53.345 29.445 53.21 29.49 53.075 29.505C52.91 29.505 52.715 29.505 52.49 29.475C52.7 29.865 52.805 30.435 52.82 30.825C53.135 30.825 53.435 30.81 53.69 30.78C53.99 30.75 54.23 30.645 54.44 30.48C54.875 30.135 55.04 29.49 55.04 28.575C55.04 27.675 54.875 26.61 54.05 25.38C54.44 24.18 54.89 22.62 55.22 21.36L54.215 20.805L53.99 20.85H53.735ZM55.145 20.925C55.505 21.675 55.955 22.68 56.135 23.34L57.53 22.86C57.32 22.23 56.885 21.27 56.495 20.535L55.145 20.925ZM54.89 23.7V25.215H57.035V23.7H54.89ZM57.095 30.39L56.015 30.825C56.96 33.615 58.58 34.125 61.16 34.125C62.18 34.125 63.305 34.11 64.205 34.05C64.265 33.6 64.46 32.85 64.67 32.505C63.665 32.61 62.195 32.67 61.235 32.67C59.27 32.67 57.8 32.385 57.095 30.39ZM56.6 27.24V27.495C56.285 30.27 55.385 32.235 53.93 33.27C54.23 33.51 54.74 34.08 54.95 34.41C56.54 33.195 57.62 30.885 58.025 27.465L57.44 27.195L57.185 27.24H56.6ZM55.37 28.95C55.505 28.815 55.925 28.71 56.21 28.71H57.29V27.24H56.015L55.37 27.57V28.95ZM55.37 28.95C55.37 28.575 56.405 28.035 56.405 28.035C56.9 27.045 57.62 24.885 57.995 23.85L57.005 23.58L56.615 23.745V23.79C56.36 24.615 55.655 26.76 55.415 27.15C55.25 27.48 55.07 27.585 54.845 27.645C54.995 27.945 55.28 28.605 55.37 28.95ZM65.735 24.81V26.4H79.235V24.81H65.735ZM67.04 21.885V23.445H75.62V21.885H67.04ZM69.68 30.045V31.395H76.385V30.045H69.68ZM69.68 32.4V33.915H76.385V32.4H69.68ZM70.58 20.265V25.695H72.35V20.265H70.58ZM77.18 20.7C74.555 24.465 70.145 27.33 65.27 28.89C65.6 29.25 66.14 30 66.35 30.39C71.21 28.605 75.785 25.59 78.725 21.495L77.18 20.7ZM68.675 27.6V34.365H70.475V29.07H75.65V34.305H77.525V27.6H68.675Z" fill="#657786"/>
</svg>
