<svg width="14" height="14" viewBox="0 0 14 14" fill="none" xmlns="http://www.w3.org/2000/svg">
<path d="M7.00005 13.4253H6.99072C5.26872 13.3933 0.300049 8.90392 0.300049 4.65192C0.300049 2.60925 1.98338 0.815918 3.90205 0.815918C5.42872 0.815918 6.45538 1.86925 6.99938 2.63592C7.54205 1.87058 8.56871 0.815918 10.096 0.815918C12.016 0.815918 13.6987 2.60925 13.6987 4.65258C13.6987 8.90325 8.72938 13.3926 7.00738 13.4239H7.00005V13.4253ZM3.90272 1.81658C2.51605 1.81658 1.30072 3.14192 1.30072 4.65325C1.30072 8.47992 5.99005 12.3839 7.00072 12.4253C8.01272 12.3839 12.7007 8.48058 12.7007 4.65325C12.7007 3.14192 11.4854 1.81658 10.0987 1.81658C8.41338 1.81658 7.47205 3.77392 7.46405 3.79325C7.31072 4.16792 6.69338 4.16792 6.53938 3.79325C6.53005 3.77325 5.58938 1.81658 3.90338 1.81658H3.90272Z" fill="#6C757D"/>
</svg>
