<svg width="76" height="26" viewBox="0 0 76 26" fill="none" xmlns="http://www.w3.org/2000/svg">
<g clip-path="url(#clip0_68018_3666)">
<path d="M22.46 8.5699L12.357 3.1149C12.134 2.9949 11.867 2.9949 11.644 3.1149L1.54299 8.5699C1.17899 8.7669 1.04299 9.2219 1.23999 9.5869C1.37499 9.8369 1.63399 9.9799 1.89999 9.9799C2.01999 9.9799 2.14299 9.9499 2.25599 9.8899L3.07099 9.4499L4.69999 20.9629C4.91399 22.1779 6.00799 23.0249 7.35799 23.0249H16.64C17.992 23.0249 19.085 22.1769 19.303 20.9379L20.929 9.4479L21.747 9.8899C22.111 10.0829 22.567 9.9499 22.764 9.5859C22.96 9.2229 22.824 8.7679 22.46 8.5699ZM17.822 20.7029C17.715 21.3089 17.119 21.5249 16.642 21.5249H7.35999C6.87999 21.5249 6.28499 21.3089 6.18199 20.7269L4.47999 8.6899L12 4.6279L19.522 8.6879L17.822 20.7029Z" fill="#44444F"/>
<path d="M8.22 13.1838C8.22 15.2678 9.915 16.9638 12 16.9638C14.085 16.9638 15.78 15.2678 15.78 13.1838C15.78 11.0998 14.085 9.40381 12 9.40381C9.915 9.40381 8.22 11.0998 8.22 13.1838ZM14.28 13.1838C14.28 14.4418 13.258 15.4638 12 15.4638C10.742 15.4638 9.72 14.4418 9.72 13.1838C9.72 11.9258 10.742 10.9038 12 10.9038C13.258 10.9038 14.28 11.9258 14.28 13.1838Z" fill="#44444F"/>
<path d="M44.374 14.214V15.87H53.59V14.214H44.374ZM44.374 17.04V18.678H53.59V17.04H44.374ZM44.374 19.902V21.774H53.608V19.902H44.374ZM40.864 8.13V10.128H57.19V8.13H40.864ZM42.628 11.244V22.62H44.788V13.116H53.014V22.62H55.264V11.244H42.628ZM47.884 9.318C47.74 10.164 47.434 11.316 47.11 12.144L49.216 12.396C49.63 11.622 50.206 10.542 50.62 9.39L47.884 9.318ZM52.096 5.664C51.736 6.492 51.106 7.608 50.548 8.364L52.474 8.904C53.086 8.238 53.878 7.248 54.58 6.204L52.096 5.664ZM43.672 6.438C44.32 7.14 45.058 8.13 45.364 8.76L47.38 7.716C47.002 7.104 46.282 6.222 45.598 5.592L43.672 6.438ZM63.184 13.782H70.87V14.772H63.184V13.782ZM63.184 16.32H70.87V17.328H63.184V16.32ZM63.184 11.244H70.87V12.234H63.184V11.244ZM60.916 9.606V18.966H73.228V9.606H60.916ZM67.864 20.28C69.862 20.964 71.932 21.954 73.12 22.62L75.28 21.18C73.894 20.514 71.536 19.56 69.484 18.876L67.864 20.28ZM59.386 6.546V8.508H74.488V6.546H59.386ZM65.83 7.5C65.776 8.346 65.56 9.516 65.362 10.344L67.45 10.686C67.738 9.948 68.116 8.886 68.458 7.77L65.83 7.5ZM64.264 18.75C63.022 19.524 60.592 20.46 58.684 20.946C59.188 21.396 59.818 22.134 60.178 22.602C62.068 22.08 64.516 21.126 66.136 20.226L64.264 18.75Z" fill="#44444F"/>
</g>
<defs>
<clipPath id="clip0_68018_3666">
<rect width="76" height="26" fill="white"/>
</clipPath>
</defs>
</svg>
