<svg width="80" height="24" viewBox="0 0 80 24" fill="none" xmlns="http://www.w3.org/2000/svg">
<path d="M19.708 22H4.292C3.028 22 2 20.972 2 19.708V7.375C2 6.11 3.028 5.083 4.292 5.083H6.438C7.633 3.17 9.722 2 12 2C14.277 2 16.367 3.17 17.562 5.083H19.708C20.972 5.083 22 6.11 22 7.375V19.708C22 20.972 20.972 22 19.708 22ZM4.292 6.583C3.855 6.583 3.5 6.938 3.5 7.375V19.708C3.5 20.145 3.855 20.5 4.292 20.5H19.708C20.145 20.5 20.5 20.145 20.5 19.708V7.375C20.5 6.938 20.145 6.583 19.708 6.583H17.258C16.941 6.633 16.626 6.488 16.476 6.201C15.596 4.536 13.882 3.501 12 3.501C10.117 3.501 8.402 4.536 7.524 6.203C7.364 6.505 7.022 6.663 6.691 6.583H4.293H4.292Z" fill="white"/>
<path d="M12.0001 8.16699C9.32014 8.16699 7.14014 10.347 7.14014 13.027C7.14014 15.707 9.32014 17.887 12.0001 17.887C14.6801 17.887 16.8601 15.707 16.8601 13.027C16.8601 10.347 14.6801 8.16699 12.0001 8.16699V8.16699ZM14.0001 13.75H12.7501V15C12.7501 15.414 12.4141 15.75 12.0001 15.75C11.5861 15.75 11.2501 15.414 11.2501 15V13.75H10.0001C9.58614 13.75 9.25014 13.414 9.25014 13C9.25014 12.586 9.58614 12.25 10.0001 12.25H11.2501V11C11.2501 10.586 11.5861 10.25 12.0001 10.25C12.4141 10.25 12.7501 10.586 12.7501 11V12.25H14.0001C14.4141 12.25 14.7501 12.586 14.7501 13C14.7501 13.414 14.4141 13.75 14.0001 13.75Z" fill="white"/>
<path d="M69.4139 12L75.2069 6.207C75.5969 5.817 75.5969 5.184 75.2069 4.793C74.8169 4.402 74.1839 4.403 73.7929 4.793L67.9999 10.586L62.2069 4.793C61.8169 4.403 61.1839 4.403 60.7929 4.793C60.4019 5.183 60.4029 5.816 60.7929 6.207L66.5859 12L60.7929 17.793C60.4029 18.183 60.4029 18.816 60.7929 19.207C60.9879 19.402 61.2429 19.5 61.4999 19.5C61.7569 19.5 62.0119 19.402 62.2069 19.207L67.9999 13.414L73.7929 19.207C73.9879 19.402 74.2429 19.5 74.4999 19.5C74.7569 19.5 75.0119 19.402 75.2069 19.207C75.5969 18.817 75.5969 18.184 75.2069 17.793L69.4139 12Z" fill="white"/>
</svg>
