<svg width="130" height="52" viewBox="0 0 130 52" fill="none" xmlns="http://www.w3.org/2000/svg">
<rect y="50" width="130" height="2" rx="1" fill="#FF6600"/>
<path d="M50.33 27.885L50.72 29.61C52.07 29.235 53.795 28.74 55.385 28.26L55.145 26.64C53.39 27.12 51.56 27.615 50.33 27.885ZM50.495 23.04V24.69H55.4V23.04H50.495ZM52.175 20.28V32.295C52.175 32.505 52.1 32.55 51.92 32.55C51.74 32.565 51.2 32.565 50.675 32.535C50.9 33.045 51.125 33.81 51.155 34.29C52.145 34.29 52.805 34.23 53.285 33.93C53.765 33.645 53.915 33.165 53.915 32.295V20.28H52.175ZM56.975 25.845V27.42H63.98V25.845H56.975ZM57.005 28.785V30.36H63.95V28.785H57.005ZM57.095 31.785V33.435H64.49V31.785H57.095ZM57.53 20.355C56.84 22.575 55.625 24.765 54.26 26.115C54.635 26.43 55.265 27.12 55.535 27.45C56.99 25.86 58.37 23.31 59.225 20.805L57.53 20.355ZM58.205 22.86H57.86L56.48 24.27V34.365H58.205V24.495H64.16V22.86H58.205ZM60.065 23.715V32.67H61.745V23.715H60.065ZM59.615 21C60.005 21.675 60.41 22.59 60.56 23.175L62.18 22.47C62 21.885 61.58 21.03 61.175 20.385L59.615 21ZM75.365 23.625C73.865 28.62 70.685 31.32 65.375 32.64C65.72 33.06 66.275 33.9 66.47 34.335C71.975 32.715 75.425 29.64 77.24 24.135L75.365 23.625ZM69.575 23.73L67.895 24.255C69.785 29.34 72.95 32.76 78.455 34.23C78.74 33.735 79.265 32.94 79.685 32.55C74.42 31.335 71.12 28.14 69.575 23.73ZM65.66 22.785V24.555H79.4V22.785H65.66ZM71.18 20.67C71.555 21.42 71.945 22.41 72.08 23.025L74.12 22.395C73.955 21.765 73.49 20.805 73.1 20.1L71.18 20.67Z" fill="#FF6600"/>
</svg>
