<svg width="48" height="24" viewBox="0 0 48 24" fill="none" xmlns="http://www.w3.org/2000/svg">
<path d="M0.528 12.816L1.152 15.576C3.312 14.976 6.072 14.184 8.616 13.416L8.232 10.824C5.424 11.592 2.496 12.384 0.528 12.816ZM0.792 5.064V7.704H8.64V5.064H0.792ZM3.48 0.647999V19.872C3.48 20.208 3.36 20.28 3.072 20.28C2.784 20.304 1.92 20.304 1.08 20.256C1.44 21.072 1.8 22.296 1.848 23.064C3.432 23.064 4.488 22.968 5.256 22.488C6.024 22.032 6.264 21.264 6.264 19.872V0.647999H3.48ZM11.16 9.552V12.072H22.368V9.552H11.16ZM11.208 14.256V16.776H22.32V14.256H11.208ZM11.352 19.056V21.696H23.184V19.056H11.352ZM12.048 0.767999C10.944 4.32 9 7.824 6.816 9.984C7.416 10.488 8.424 11.592 8.856 12.12C11.184 9.576 13.392 5.496 14.76 1.488L12.048 0.767999ZM13.128 4.776H12.576L10.368 7.032V23.184H13.128V7.392H22.656V4.776H13.128ZM16.104 6.144V20.472H18.792V6.144H16.104ZM15.384 1.8C16.008 2.88 16.656 4.344 16.896 5.28L19.488 4.152C19.2 3.216 18.528 1.848 17.88 0.816L15.384 1.8ZM40.584 6C38.184 13.992 33.096 18.312 24.6 20.424C25.152 21.096 26.04 22.44 26.352 23.136C35.16 20.544 40.68 15.624 43.584 6.816L40.584 6ZM31.32 6.168L28.632 7.008C31.656 15.144 36.72 20.616 45.528 22.968C45.984 22.176 46.824 20.904 47.496 20.28C39.072 18.336 33.792 13.224 31.32 6.168ZM25.056 4.656V7.488H47.04V4.656H25.056ZM33.888 1.272C34.488 2.472 35.112 4.056 35.328 5.04L38.592 4.032C38.328 3.024 37.584 1.488 36.96 0.36L33.888 1.272Z" fill="#171725"/>
</svg>
