<svg width="64" height="40" viewBox="0 0 64 40" fill="none" xmlns="http://www.w3.org/2000/svg">
<rect width="64" height="40" rx="20" fill="#FF6600"/>
<path d="M25.888 22.664H22.016V19.016H25.888V22.664ZM20.88 17.944V23.72H27.056V17.944H20.88ZM18.576 26.232V15.464H29.376V26.232H18.576ZM17.376 14.28V28.216H18.576V27.352H29.376V28.216H30.64V14.28H17.376ZM45.056 17.64H42.368V16.648H45.056V17.64ZM38.608 17.64V16.648H41.248V17.64H38.608ZM34.976 16.648H37.52V17.64H34.976V16.648ZM38.608 15.08H41.248V15.848H38.608V15.08ZM46.192 15.848H42.368V15.08H46.928V14.216H33.136V15.08H37.52V15.848H33.888V18.424H46.192V15.848ZM39.92 25.32H44.048C43.52 25.736 42.848 26.088 42.08 26.376C41.248 26.088 40.48 25.752 39.824 25.384L39.92 25.32ZM39.504 22.616H44.704V23.272H39.504V22.616ZM39.504 21.336H44.704V21.992H39.504V21.336ZM45.104 24.52L44.912 24.568H40.928C41.168 24.36 41.376 24.152 41.568 23.928H45.744V20.68H38.992C39.12 20.488 39.248 20.312 39.376 20.12H46.64V19.288H39.888C39.984 19.096 40.08 18.888 40.176 18.712L39.152 18.424C38.64 19.56 37.792 20.616 36.848 21.4C36.96 21.24 37.072 21.096 37.168 20.952L36.144 20.6C35.44 21.816 34 23.224 32.656 24.088C32.848 24.264 33.168 24.632 33.312 24.856C33.792 24.52 34.304 24.136 34.768 23.704V28.216H35.824V22.68C36.144 22.328 36.416 21.992 36.688 21.64C36.928 21.816 37.312 22.136 37.472 22.312C37.808 22.008 38.16 21.656 38.496 21.256V23.928H40.336C39.968 24.248 39.52 24.568 39.008 24.872C38.72 24.648 38.448 24.408 38.224 24.168L37.424 24.488C37.664 24.776 37.936 25.016 38.224 25.272C37.824 25.48 37.392 25.672 36.928 25.832C37.136 25.976 37.456 26.296 37.584 26.472C38.08 26.296 38.56 26.072 39.008 25.848C39.568 26.184 40.144 26.504 40.784 26.776C39.488 27.112 38.016 27.304 36.576 27.416C36.752 27.64 36.944 27.992 37.024 28.248C38.784 28.072 40.544 27.784 42.064 27.256C43.424 27.72 44.928 28.024 46.448 28.216C46.576 27.944 46.816 27.576 47.024 27.352C45.76 27.24 44.512 27.032 43.36 26.744C44.352 26.264 45.184 25.672 45.76 24.904L45.104 24.52ZM35.744 18.568C35.152 19.496 33.872 20.552 32.752 21.208C32.96 21.384 33.28 21.752 33.472 21.96C34.656 21.224 36 20.04 36.8 18.904L35.744 18.568Z" fill="white"/>
</svg>
