<svg width="88" height="46" viewBox="0 0 88 46" fill="none" xmlns="http://www.w3.org/2000/svg">
<rect width="88" height="46" rx="23" fill="#FF6600"/>
<path d="M33.18 17.78C32.96 17.18 32.32 16.28 31.76 15.6L30.84 16.18C31.4 16.86 31.98 17.82 32.22 18.46L33.18 17.78ZM28.34 15.4C27.48 18.44 26.12 21.48 24.54 23.5C24.8 23.86 25.2 24.66 25.32 25C25.84 24.3 26.34 23.5 26.84 22.62V33.52H28.12V19.98C28.7 18.62 29.22 17.18 29.62 15.76L28.34 15.4ZM34.94 18.88H29.44V20.08H34.94V18.88ZM34.56 21.52H30.06V22.72H34.56V21.52ZM30.06 25.4H34.56V24.2H30.06V25.4ZM33.52 28.22V30.96H31.02V28.22H33.52ZM29.82 33.32H31.02V32.14H33.52V33H34.76V27.02H29.82V33.32ZM41.16 28.04H38.02V26H41.16V28.04ZM38.02 31.38V29.26H41.16V31.38H38.02ZM43.18 22.74V21.48H40.54C41.5 19.92 42.32 18.14 42.96 16.24L41.7 15.96C41.02 17.98 40.14 19.84 39.04 21.48H38.66V18.86H40.48V17.62H38.66V15.38H37.38V17.62H35.38V18.86H37.38V21.48H35V22.74H38.08C36.98 24.1 35.74 25.28 34.3 26.2C34.58 26.46 35.04 27 35.22 27.28C35.74 26.9 36.24 26.52 36.72 26.1V33.52H38.02V32.64H41.16V33.36H42.5V24.74H38.1C38.66 24.12 39.2 23.44 39.7 22.74H43.18ZM62.7 19.3V17.86H52.48C52.78 17.12 53.02 16.38 53.26 15.62L51.74 15.26C51.5 16.12 51.2 17 50.86 17.86H45.34V19.3H50.26C48.96 22.06 47.14 24.6 44.7 26.3C44.94 26.64 45.3 27.28 45.46 27.64C46.34 27.04 47.12 26.32 47.84 25.56V33.5H49.3V23.82C50.32 22.42 51.18 20.9 51.88 19.3H62.7ZM63.08 26.66H57.74V25.5C59.2 24.58 60.74 23.38 61.82 22.18L60.86 21.44L60.56 21.54H52.42V22.9H59.2C58.32 23.68 57.24 24.5 56.26 25.02V26.66H50.74V28.06H56.26V31.74C56.26 32.02 56.18 32.1 55.82 32.12C55.48 32.16 54.28 32.16 52.96 32.1C53.16 32.54 53.36 33.1 53.44 33.52C55.14 33.52 56.24 33.52 56.9 33.3C57.56 33.06 57.74 32.64 57.74 31.76V28.06H63.08V26.66Z" fill="white"/>
</svg>
