<svg width="64" height="40" viewBox="0 0 64 40" fill="none" xmlns="http://www.w3.org/2000/svg">
<rect x="0.5" y="0.5" width="63" height="39" rx="19.5" fill="white"/>
<path d="M18.416 15.304H21.504V18.12H18.416V15.304ZM17.36 14.264V19.144H22.608V14.264H17.36ZM19.648 18.68V25.992H20.72V18.68H19.648ZM17.376 20.68V26.472H18.384V20.68H17.376ZM16.544 26.408L16.832 27.56C18.48 27.112 20.736 26.504 22.88 25.928L22.752 24.872C20.464 25.464 18.096 26.072 16.544 26.408ZM20.016 21.384V22.456H22.688V21.384H20.016ZM24.032 14.28V15.336H29.248V20.264H24.032V21.32H30.352V14.28H24.032ZM24.048 17.272V18.28H29.744V17.272H24.048ZM26.912 20.68L25.968 20.872C26.704 24.264 28.16 26.904 30.688 28.168C30.864 27.832 31.216 27.368 31.488 27.128C29.056 26.088 27.584 23.688 26.912 20.68ZM30.48 21.832C29.728 22.536 28.384 23.48 27.456 24.024L28.096 24.792C29.04 24.264 30.304 23.432 31.248 22.664L30.48 21.832ZM23.328 28.296C23.632 28.088 24.128 27.912 27.44 27C27.392 26.744 27.376 26.248 27.376 25.912L23.808 26.776L23.232 27.224L23.328 28.296ZM23.328 28.296C23.328 27.864 24.528 27.128 24.528 27.128V14.28H23.376V26.168C23.376 26.824 23.04 27.16 22.784 27.304C22.96 27.544 23.232 28.024 23.328 28.296ZM40.016 14.68V15.544H47.248V14.68H40.016ZM42.336 16.472V17.24H46.672V16.472H42.336ZM41.136 18.488V19.256H47.136V18.488H41.136ZM43.696 17.048V18.888H44.752V17.048H43.696ZM42.64 13.528C42.192 15.4 41.28 16.984 39.968 17.976C40.176 18.152 40.512 18.536 40.64 18.712C42.048 17.576 43.056 15.8 43.584 13.688L42.64 13.528ZM45.488 20.008V25.368C45.488 25.528 45.44 25.576 45.28 25.576C45.104 25.576 44.56 25.576 43.968 25.56C44.08 25.8 44.208 26.12 44.256 26.36C45.12 26.36 45.664 26.36 46 26.216C46.336 26.072 46.432 25.832 46.432 25.368V20.008H45.488ZM41.696 20.008V20.776H45.936V20.008H41.696ZM41.264 20.008V22.28C41.264 23.368 41.168 24.744 40.384 25.784C40.592 25.88 41.008 26.152 41.168 26.312C42.032 25.192 42.192 23.544 42.192 22.312V20.008H41.264ZM42.16 23.944L42.544 24.856C43.552 24.536 44.704 24.136 45.92 23.704L45.824 22.984C44.448 23.352 43.12 23.72 42.16 23.944ZM42.528 21.752C43.264 22.088 44.176 22.648 44.656 23.016L45.12 22.28C44.656 21.928 43.76 21.48 42.992 21.128L42.528 21.752ZM33.232 14.216V28.248H34.224V15.304H36.768V14.216H33.232ZM36.416 14.216V14.504C36.112 15.592 35.584 17.416 35.04 18.888C36.112 20.2 36.352 21.304 36.352 22.2C36.368 22.696 36.272 23.16 36.064 23.352C35.92 23.432 35.76 23.48 35.584 23.496C35.36 23.512 35.072 23.512 34.736 23.464C34.896 23.752 34.976 24.152 34.992 24.424C35.328 24.44 35.68 24.424 35.984 24.392C36.288 24.376 36.528 24.28 36.736 24.12C37.152 23.8 37.312 23.128 37.312 22.296C37.312 21.288 37.072 20.136 36 18.776C36.496 17.464 37.04 15.88 37.456 14.584L36.768 14.168L36.592 14.216H36.416ZM37.568 14.104C38 14.888 38.56 15.96 38.8 16.648L39.744 16.28C39.488 15.624 38.96 14.6 38.48 13.816L37.568 14.104ZM37.296 17.256V18.296H39.52V17.256H37.296ZM39.28 24.536L38.512 24.872C39.52 27.544 41.184 28.088 44.016 28.088C45.056 28.088 46.256 28.072 47.168 28.008C47.2 27.688 47.344 27.176 47.504 26.92C46.496 27.032 45.072 27.08 44.048 27.08C41.696 27.08 40.096 26.68 39.28 24.536ZM39.184 21.16V21.352C38.8 24.312 37.776 26.408 36.256 27.512C36.48 27.688 36.816 28.072 36.976 28.312C38.576 27.064 39.744 24.76 40.192 21.32L39.744 21.128L39.552 21.16H39.184ZM37.696 22.408C37.824 22.28 38.224 22.168 38.544 22.168H39.648V21.16H38.272L37.696 21.432V22.408ZM37.696 22.408C37.696 22.104 38.512 21.672 38.512 21.672C39.056 20.68 39.856 18.408 40.272 17.368L39.536 17.144L39.232 17.288V17.336C38.96 18.152 38.144 20.52 37.888 20.936C37.728 21.256 37.504 21.336 37.28 21.4C37.408 21.64 37.632 22.136 37.696 22.408Z" fill="#FF6600"/>
<rect x="0.5" y="0.5" width="63" height="39" rx="19.5" stroke="#FF6600"/>
</svg>
