<svg width="16" height="16" viewBox="0 0 16 16" fill="none" xmlns="http://www.w3.org/2000/svg">
<path d="M9.36401 1.49467L6.59867 1.48801H6.59734C3.68134 1.48801 1.39734 3.77267 1.39734 6.68934C1.39734 9.42134 3.52134 11.4933 6.37401 11.6027V14.1547C6.37401 14.2267 6.40334 14.3453 6.45401 14.4233C6.54867 14.5733 6.71001 14.6547 6.87534 14.6547C6.96734 14.6547 7.06001 14.6293 7.14334 14.576C7.31934 14.464 11.4587 11.816 12.5353 10.9053C13.8033 9.83201 14.562 8.25867 14.564 6.69734V6.68601C14.56 3.77467 12.2773 1.49467 9.36401 1.49401V1.49467ZM11.8887 10.1427C11.1327 10.7827 8.64734 12.4127 7.37401 13.238V11.1133C7.37401 10.8373 7.15067 10.6133 6.87401 10.6133H6.61001C4.17001 10.6133 2.39801 8.96267 2.39801 6.68934C2.39801 4.33334 4.24334 2.48801 6.59801 2.48801L9.36267 2.49467H9.36401C11.7187 2.49467 13.564 4.33867 13.5653 6.69201C13.5633 7.96534 12.9373 9.25467 11.8893 10.1427H11.8887Z" fill="#6C757D"/>
</svg>
