<svg width="112" height="32" viewBox="0 0 112 32" fill="none" xmlns="http://www.w3.org/2000/svg">
<rect x="0.5" y="0.5" width="111" height="31" rx="15.5" fill="white"/>
<path d="M12.448 15.864C12.912 16.872 13.328 18.184 13.488 19L14.384 18.632C14.24 17.848 13.76 16.552 13.296 15.56L12.448 15.864ZM10.912 19.976C11.088 21.032 11.248 22.408 11.28 23.336L12.192 23.112C12.144 22.2 11.968 20.856 11.776 19.8L10.912 19.976ZM9.232 19.864C9.088 21.16 8.848 22.6 8.48 23.576C8.72 23.64 9.184 23.8 9.392 23.912C9.712 22.92 10.016 21.416 10.192 20.024L9.232 19.864ZM8.864 15.56C8.864 15.32 9.568 14.968 9.568 14.968V14.952C10.592 13.672 11.632 11.8 12.448 10.024L11.424 9.576C10.8 11.32 9.712 13.16 9.376 13.64C9.04 14.12 8.768 14.456 8.512 14.52C8.64 14.808 8.8 15.336 8.864 15.56ZM8.864 15.544C9.12 15.416 9.536 15.32 12.016 15.048C12.016 14.824 12.064 14.424 12.112 14.136L9.376 14.36L8.848 14.696L8.864 15.544ZM8.976 19.16C8.976 18.936 9.68 18.6 9.68 18.6V18.568C11.152 16.968 12.656 14.712 13.84 12.504L12.896 11.944C11.872 14.136 10.272 16.44 9.76 17.032C9.296 17.64 8.944 18.056 8.624 18.12C8.736 18.408 8.912 18.936 8.976 19.16ZM8.976 19.16C9.28 19 9.776 18.872 13.696 18.264C13.68 18.04 13.68 17.64 13.712 17.368L9.488 17.96L8.928 18.328L8.976 19.16ZM12.624 19.656C12.912 20.472 13.232 21.528 13.344 22.232L14.208 21.896C14.064 21.224 13.728 20.184 13.44 19.368L12.624 19.656ZM14.752 10.712V15C14.752 17.48 14.688 21.128 13.664 23.72C13.92 23.816 14.432 24.088 14.624 24.264C15.696 21.576 15.856 17.592 15.856 15V10.712H14.752ZM18.016 17.592V24.072H18.768V17.592H18.016ZM19.888 17.592V23.992H20.64V17.592H19.888ZM15.36 12.52V13.48H21.312V15.08H15.36V16.04H22.384V12.52H15.36ZM15.984 17.128V24.296H16.912V18.152H22.192V17.128H15.984ZM21.76 17.128V23.176C21.76 23.288 21.728 23.32 21.648 23.32C21.536 23.336 21.248 23.336 20.928 23.32C21.04 23.56 21.168 23.928 21.184 24.168C21.744 24.168 22.096 24.168 22.384 24.024C22.656 23.848 22.736 23.624 22.736 23.176V17.128H21.76ZM16.48 19.96V20.952H22.112V19.96H16.48ZM21.424 9.592C19.92 10.072 17.136 10.488 14.752 10.712C14.88 10.952 15.04 11.352 15.072 11.592C17.552 11.384 20.448 11 22.352 10.408L21.424 9.592ZM37.344 14.744V24.28H38.464V14.744H37.344ZM33.552 10.984H37.344V12.6H33.552V10.984ZM32.416 10.072V13.512H38.528V10.072H32.416ZM31.488 14.44V15.432H39.392V14.44H31.488ZM33.04 16.824V17.736H37.904V16.824H33.04ZM33.04 19.144V20.056H37.904V19.144H33.04ZM32.496 14.696V21.944L33.616 21.832V14.696H32.496ZM24.784 11.304V12.376H31.408V11.304H24.784ZM24.624 20.424V21.496H31.6V20.424H24.624ZM27.584 9.576V13.944H28.672V9.576H27.584ZM27.68 14.008V18.664H27.584V24.312H28.672V18.664H28.56V14.008H27.68ZM26.144 16.76H30.176V18.232H26.144V16.76ZM26.144 14.456H30.176V15.896H26.144V14.456ZM25.216 13.56V19.128H31.12V13.56H25.216ZM31.184 21.448V22.536H39.344V21.448H31.184ZM45.456 10.536V24.28H46.576V11.608H53.664V24.152H54.816V10.536H45.456ZM47.232 13.928V14.872H53.12V13.928H47.232ZM46.064 22.248V23.32H54.304V22.248H46.064ZM49.664 12.12V17.192H50.64V12.12H49.664ZM48.832 17.528H51.536V20.008H48.832V17.528ZM47.904 16.632V20.92H52.496V16.632H47.904ZM43.792 9.64C43.008 12.072 41.696 14.488 40.256 16.056C40.464 16.344 40.8 17 40.896 17.288C42.496 15.448 43.984 12.696 44.896 9.96L43.792 9.64ZM42.464 13.56V24.312H43.6V12.44L43.584 12.424L42.464 13.56ZM63.312 9.624C63.248 12.088 63.344 19.912 56.672 23.288C57.04 23.544 57.44 23.912 57.648 24.232C64.448 20.584 64.576 12.456 64.64 9.624H63.312ZM64.496 11.592L63.344 11.72C63.568 13.112 64.224 21.208 70.56 24.168C70.736 23.832 71.088 23.416 71.44 23.144C65.296 20.408 64.64 12.744 64.496 11.592ZM76.048 17.928H84.112V19.016H76.048V17.928ZM76.048 19.8H84.112V20.92H76.048V19.8ZM76.048 16.056H84.112V17.144H76.048V16.056ZM74.88 15.256V21.72H85.312V15.256H74.88ZM81.52 22.472C83.248 23.032 84.976 23.72 86 24.232L87.072 23.544C85.936 23.032 84.064 22.328 82.32 21.8L81.52 22.472ZM77.568 21.816C76.416 22.456 74.496 23.016 72.848 23.368C73.12 23.576 73.536 24.04 73.728 24.264C75.328 23.832 77.36 23.096 78.656 22.328L77.568 21.816ZM79.408 10.648V11.592H86V10.648H79.408ZM79.664 9.528C79.296 10.68 78.624 11.816 77.792 12.584C78.064 12.728 78.512 13.016 78.704 13.192C79.536 12.376 80.304 11.08 80.736 9.768L79.664 9.528ZM81.568 11.24V11.752C81.568 12.568 81.168 13.672 77.008 14.216C77.216 14.44 77.536 14.856 77.648 15.144C82.16 14.44 82.672 13 82.672 11.784V11.24H81.568ZM82.512 12.184L81.664 12.392C82.544 13.816 84.384 14.728 86.688 15.064C86.832 14.76 87.136 14.328 87.376 14.088C85.152 13.896 83.328 13.224 82.512 12.184ZM73.12 10.52V11.464H76.976V10.52H73.12ZM72.768 13.016V13.992H77.376V13.016H72.768ZM85.6 10.648V10.824C85.312 11.512 84.864 12.328 84.496 12.856L85.44 13.192C85.888 12.616 86.4 11.688 86.8 10.872L85.984 10.6L85.808 10.648H85.6ZM91.328 9.576V24.28H92.448V9.576H91.328ZM88.752 14.936V16.072H95.072V14.936H88.752ZM88.864 10.824C89.28 11.944 89.664 13.432 89.728 14.376L90.688 14.152C90.576 13.176 90.208 11.72 89.744 10.6L88.864 10.824ZM94.032 10.536C93.808 11.624 93.328 13.208 92.96 14.168L93.744 14.408C94.176 13.512 94.672 12.008 95.088 10.808L94.032 10.536ZM100.24 9.576V24.28H101.376V9.576H100.24ZM95.04 19.752L95.232 20.872L103.456 19.384L103.264 18.28L95.04 19.752ZM96.24 11.528C97.168 12.104 98.272 12.968 98.784 13.592L99.424 12.664C98.896 12.072 97.792 11.256 96.864 10.712L96.24 11.528ZM95.424 15.56C96.384 16.088 97.536 16.904 98.096 17.48L98.704 16.536C98.128 15.96 96.944 15.208 95.984 14.712L95.424 15.56ZM90.128 17C89.872 18.44 89.184 20.216 88.528 21.16C88.752 21.512 89.024 22.088 89.152 22.488C89.984 21.352 90.672 19.08 91.008 17.288L90.128 17ZM93.184 17.016L92.512 17.496C92.864 18.2 93.744 20.248 94.016 21.128L94.896 20.216C94.64 19.688 93.488 17.496 93.184 17.016Z" fill="#FF6600"/>
<rect x="0.5" y="0.5" width="111" height="31" rx="15.5" stroke="#FF6600"/>
</svg>
