<svg width="20" height="20" viewBox="0 0 20 20" fill="none" xmlns="http://www.w3.org/2000/svg">
<path d="M17.708 20H2.292C1.028 20 0 18.972 0 17.708V5.375C0 4.11 1.028 3.083 2.292 3.083H4.438C5.633 1.17 7.722 0 10 0C12.277 0 14.367 1.17 15.562 3.083H17.708C18.972 3.083 20 4.11 20 5.375V17.708C20 18.972 18.972 20 17.708 20ZM2.292 4.583C1.855 4.583 1.5 4.938 1.5 5.375V17.708C1.5 18.145 1.855 18.5 2.292 18.5H17.708C18.145 18.5 18.5 18.145 18.5 17.708V5.375C18.5 4.938 18.145 4.583 17.708 4.583H15.258C14.941 4.633 14.626 4.488 14.476 4.201C13.596 2.536 11.882 1.501 10 1.501C8.117 1.501 6.402 2.536 5.524 4.203C5.364 4.505 5.022 4.663 4.691 4.583H2.293H2.292Z" fill="white"/>
</svg>
