<svg width="64" height="40" viewBox="0 0 64 40" fill="none" xmlns="http://www.w3.org/2000/svg">
<rect width="64" height="40" rx="20" fill="#FF6600"/>
<path d="M25.12 15.448V16.44H29.216V15.448H25.12ZM24.816 18.568V19.576H31.392V18.568H24.816ZM20.32 16.472V17.432H24.752V16.472H20.32ZM20.816 18.6V19.576H24.448V18.6H20.816ZM20.816 20.776V21.72H24.448V20.776H20.816ZM26.72 13.656V19.256H27.744V13.656H26.72ZM30.176 14.104C29.024 17.656 26.992 20.6 24.24 22.376C24.464 22.584 24.832 23.032 24.976 23.24C27.776 21.256 29.92 18.184 31.2 14.344L30.176 14.104ZM26.192 21.192V28.28H27.232V22.2H29.744V28.152H30.832V21.192H26.192ZM26.688 23.864V24.84H30.224V23.864H26.688ZM26.688 26.552V27.56H30.224V26.552H26.688ZM19.424 13.656C18.736 16.104 17.632 18.568 16.384 20.2C16.576 20.488 16.896 21.128 16.992 21.416C18.4 19.544 19.664 16.712 20.464 13.944L19.424 13.656ZM18.224 17.8V28.264H19.248V16.744L19.232 16.712L18.224 17.8ZM21.44 14.296C21.888 14.84 22.368 15.608 22.56 16.136L23.344 15.592C23.152 15.096 22.656 14.36 22.208 13.816L21.44 14.296ZM20.624 23.048V28.104H21.6V24.008H23.6V27.864H24.608V23.048H20.624ZM20.944 26.216V27.16H24.176V26.216H20.944ZM37.36 22.76V23.88H47.312V22.76H37.36ZM38.72 18.616V19.72H45.312V18.616H38.72ZM41.808 21.432V26.84C41.808 27.064 41.744 27.128 41.456 27.144C41.168 27.176 40.224 27.176 39.152 27.128C39.312 27.48 39.472 27.944 39.536 28.264C40.912 28.28 41.792 28.28 42.336 28.104C42.864 27.912 43.024 27.56 43.024 26.856V21.432H41.808ZM44.992 18.616V18.84C44.32 19.672 42.976 20.808 41.808 21.432C42 21.608 42.32 21.928 42.464 22.136C43.792 21.4 45.296 20.248 46.304 19.144L45.536 18.552L45.28 18.616H44.992ZM32.992 15.656V16.808H47.008V15.656H32.992ZM38.16 13.56C37.264 16.872 35.392 20.424 32.48 22.456C32.672 22.728 32.96 23.256 33.104 23.56C36.304 21.272 38.272 17.544 39.392 13.864L38.16 13.56ZM35.008 20.104V28.264H36.208V20.104H35.008Z" fill="white"/>
</svg>
