<svg width="17" height="14" viewBox="0 0 17 14" fill="none" xmlns="http://www.w3.org/2000/svg">
<path d="M16 6.00012H3.41399L7.70699 1.70712C8.09699 1.31712 8.09699 0.684119 7.70699 0.293119C7.31699 -0.0978808 6.68399 -0.0968807 6.29299 0.293119L0.292988 6.29312C-0.0970117 6.68312 -0.0970117 7.31612 0.292988 7.70712L6.29299 13.7071C6.48799 13.9021 6.74299 14.0001 6.99999 14.0001C7.25699 14.0001 7.51199 13.9021 7.70699 13.7071C8.09699 13.3171 8.09699 12.6841 7.70699 12.2931L3.41399 8.00012H16C16.553 8.00012 17 7.55312 17 7.00012C17 6.44712 16.553 6.00012 16 6.00012Z" fill="black"/>
</svg>
