<svg width="65" height="40" viewBox="0 0 65 40" fill="none" xmlns="http://www.w3.org/2000/svg">
<rect x="0.305969" width="64" height="40" rx="20" fill="#FF6600"/>
<path d="M16.802 22.088L17.122 23.256C18.482 22.824 20.29 22.232 21.986 21.672L21.826 20.568C19.97 21.16 18.066 21.752 16.802 22.088ZM16.946 16.76V17.88H21.97V16.76H16.946ZM18.994 13.576V26.808C18.994 27.048 18.914 27.096 18.722 27.096C18.53 27.112 17.906 27.112 17.218 27.096C17.378 27.432 17.538 27.944 17.57 28.248C18.594 28.264 19.218 28.216 19.602 28.024C20.018 27.832 20.162 27.496 20.162 26.808V13.576H18.994ZM23.586 19.624V20.696H30.994V19.624H23.586ZM23.602 22.824V23.896H30.978V22.824H23.602ZM23.634 26.072V27.176H31.57V26.072H23.634ZM24.338 13.656C23.602 16.024 22.386 18.36 20.994 19.848C21.25 20.056 21.698 20.488 21.89 20.696C23.314 19.048 24.626 16.52 25.474 13.96L24.338 13.656ZM24.354 16.424H24.114L23.186 17.384V28.28H24.354V17.528H31.25V16.424H24.354ZM27.058 17.016V26.664H28.194V17.016H27.058ZM26.562 14.104C27.01 14.84 27.506 15.848 27.698 16.504L28.786 16.024C28.578 15.384 28.082 14.424 27.602 13.704L26.562 14.104ZM43.89 16.936C42.066 22.392 38.578 25.48 32.882 27.128C33.122 27.4 33.49 27.96 33.634 28.248C39.442 26.392 43.09 23.112 45.138 17.288L43.89 16.936ZM36.626 17L35.506 17.352C37.538 22.76 41.202 26.6 46.946 28.184C47.138 27.848 47.49 27.336 47.778 27.064C42.178 25.672 38.434 21.96 36.626 17ZM33.106 16.392V17.56H47.57V16.392H33.106ZM39.074 13.832C39.554 14.632 40.05 15.688 40.258 16.344L41.57 15.928C41.346 15.256 40.802 14.216 40.322 13.464L39.074 13.832Z" fill="white"/>
</svg>
